<svg width="54" height="54" viewBox="0 0 54 54" fill="none" xmlns="http://www.w3.org/2000/svg">
<rect x="0.5" y="0.5" width="53" height="53" rx="7.5" stroke="#C8C5CB"/>
<path d="M27 44C36.3888 44 44 36.3888 44 27C44 17.6112 36.3888 10 27 10C17.6112 10 10 17.6112 10 27C10 36.3888 17.6112 44 27 44Z" fill="#3B5998"/>
<path d="M31.2738 27.6654H28.2404V38.7785H23.6445V27.6654H21.4586V23.7598H23.6445V21.2324C23.6445 19.4251 24.503 16.595 28.2813 16.595L31.6856 16.6092V20.4003H29.2156C28.8104 20.4003 28.2407 20.6027 28.2407 21.4648V23.7634H31.6753L31.2738 27.6654Z" fill="white"/>
</svg>
