<svg width="54" height="54" viewBox="0 0 54 54" fill="none" xmlns="http://www.w3.org/2000/svg">
<rect x="0.5" y="0.5" width="53.0001" height="53" rx="7.5" stroke="#C8C5CB"/>
<path d="M18.7747 30.0824L17.7462 33.922L13.9871 34.0015C12.8637 31.9178 12.2264 29.5337 12.2264 27.0003C12.2264 24.5505 12.8222 22.2403 13.8783 20.2061H13.8791L17.2258 20.8196L18.6919 24.1462C18.385 25.0408 18.2178 26.0011 18.2178 27.0003C18.2179 28.0848 18.4143 29.1238 18.7747 30.0824Z" fill="#FBBB00"/>
<path d="M41.5155 24.2402C41.6852 25.1339 41.7737 26.0569 41.7737 27.0001C41.7737 28.0578 41.6625 29.0896 41.4506 30.0848C40.7314 33.4713 38.8522 36.4285 36.249 38.5211L36.2482 38.5203L32.0329 38.3052L31.4363 34.581C33.1636 33.5679 34.5136 31.9826 35.2247 30.0848H27.3248V24.2402H35.3399H41.5155Z" fill="#518EF8"/>
<path d="M36.2481 38.5203L36.2489 38.5211C33.7172 40.5561 30.501 41.7737 27 41.7737C21.3739 41.7737 16.4824 38.629 13.9871 34.0013L18.7747 30.0823C20.0223 33.412 23.2344 35.7823 27 35.7823C28.6186 35.7823 30.135 35.3447 31.4361 34.5809L36.2481 38.5203Z" fill="#28B446"/>
<path d="M36.4301 15.6277L31.6441 19.546C30.2974 18.7042 28.7056 18.218 27.0001 18.218C23.1493 18.218 19.8771 20.697 18.692 24.1461L13.8792 20.2059C16.338 15.4654 21.2904 12.2266 27.0001 12.2266C30.5848 12.2266 33.8715 13.5034 36.4301 15.6277Z" fill="#F14336"/>
</svg>
