<svg width="32" height="32" viewBox="0 0 32 32" fill="none" xmlns="http://www.w3.org/2000/svg">
<path d="M17.1316 3.66858C16.5067 3.04374 15.4937 3.04374 14.8688 3.66858L3.66882 14.8686C3.04399 15.4934 3.04399 16.5065 3.66882 17.1313C4.29366 17.7562 5.30673 17.7562 5.93157 17.1313L6.4002 16.6627V27.1999C6.4002 28.0836 7.11654 28.7999 8.0002 28.7999H11.2002C12.0838 28.7999 12.8002 28.0836 12.8002 27.1999V24C12.8002 23.1163 13.5165 22.4 14.4002 22.4H17.6002C18.4839 22.4 19.2002 23.1163 19.2002 24V27.1999C19.2002 28.0836 19.9165 28.7999 20.8002 28.7999H24.0002C24.8839 28.7999 25.6002 28.0836 25.6002 27.1999V16.6627L26.0688 17.1313C26.6937 17.7562 27.7067 17.7562 28.3316 17.1313C28.9564 16.5065 28.9564 15.4934 28.3316 14.8686L17.1316 3.66858Z" fill="#6A3EA1"/>
</svg>
