<svg width="32" height="32" viewBox="0 0 32 32" fill="none" xmlns="http://www.w3.org/2000/svg">
<path fill-rule="evenodd" clip-rule="evenodd" d="M18.383 5.07346C17.7765 2.57545 14.2239 2.57545 13.6174 5.07346C13.2257 6.68714 11.3769 7.45293 9.95886 6.58889C7.76368 5.25135 5.25159 7.76344 6.58914 9.95861C7.45317 11.3767 6.68738 13.2254 5.0737 13.6172C2.57569 14.2236 2.57569 17.7763 5.0737 18.3827C6.68738 18.7745 7.45317 20.6232 6.58914 22.0413C5.2516 24.2365 7.76369 26.7486 9.95886 25.411C11.3769 24.547 13.2257 25.3128 13.6174 26.9264C14.2239 29.4245 17.7765 29.4245 18.383 26.9264C18.7747 25.3128 20.6235 24.547 22.0415 25.411C24.2367 26.7486 26.7488 24.2365 25.4113 22.0413C24.5472 20.6232 25.313 18.7745 26.9267 18.3827C29.4247 17.7763 29.4247 14.2236 26.9267 13.6172C25.313 13.2254 24.5472 11.3767 25.4113 9.95861C26.7488 7.76344 24.2367 5.25135 22.0415 6.58889C20.6235 7.45293 18.7747 6.68714 18.383 5.07346ZM16.0002 20.7999C18.6512 20.7999 20.8002 18.6509 20.8002 16C20.8002 13.349 18.6512 11.2 16.0002 11.2C13.3492 11.2 11.2002 13.349 11.2002 16C11.2002 18.6509 13.3492 20.7999 16.0002 20.7999Z" fill="#6A3EA1"/>
</svg>
